<?xml version="1.0" encoding="UTF-8" standalone="no"?>
<svg xmlns:xlink="http://www.w3.org/1999/xlink" height="45.0px" width="46.0px" xmlns="http://www.w3.org/2000/svg">
  <g transform="matrix(1.0, 0.0, 0.0, 1.0, 23.0, 23.0)">
    <path d="M-16.0 -16.0 Q-9.25 -22.75 0.0 -22.75 9.25 -22.75 16.0 -16.0 22.75 -9.25 22.75 -0.5 22.75 8.25 16.0 15.0 9.25 21.75 0.0 21.75 -9.25 21.75 -16.0 15.0 -22.75 8.25 -22.75 -0.5 -22.75 -9.25 -16.0 -16.0" fill="url(#gradient0)" fill-rule="evenodd" stroke="none"/>
    <path d="M-16.0 -16.0 Q-9.25 -22.75 0.0 -22.75 9.25 -22.75 16.0 -16.0 22.75 -9.25 22.75 -0.5 22.75 8.25 16.0 15.0 9.25 21.75 0.0 21.75 -9.25 21.75 -16.0 15.0 -22.75 8.25 -22.75 -0.5 -22.75 -9.25 -16.0 -16.0 Z" fill="none" stroke="#444444" stroke-linecap="round" stroke-linejoin="round" stroke-width="0.25"/>
  </g>
  <defs>
    <linearGradient gradientTransform="matrix(0.0049, 0.0271, -0.0276, 0.0048, 0.0, -0.5)" gradientUnits="userSpaceOnUse" id="gradient0" spreadMethod="pad" x1="-819.2" x2="819.2">
      <stop offset="0.0" stop-color="#ff6633"/>
      <stop offset="0.3333333333333333" stop-color="#ffff00"/>
      <stop offset="0.6666666666666666" stop-color="#ff6633"/>
      <stop offset="1.0" stop-color="#ffff00"/>
    </linearGradient>
  </defs>
</svg>
