<?xml version="1.0" encoding="UTF-8" standalone="no"?>
<svg xmlns:xlink="http://www.w3.org/1999/xlink" height="85.6px" width="83.4px" xmlns="http://www.w3.org/2000/svg">
  <g transform="matrix(1.0, 0.0, 0.0, 1.0, 42.0, 43.15)">
    <path d="M-15.0 -10.0 Q-5.0 -9.3 0.1 -14.9 5.05 -20.15 1.0 -25.0 -10.0 -38.7 2.1 -42.5 6.65 -43.95 10.95 -42.2 15.65 -40.3 16.0 -36.0 16.35 -31.75 9.6 -20.65 5.05 -12.95 13.0 -9.0 19.5 -5.75 31.1 -13.5 39.4 -19.0 41.0 -9.0 43.2 4.3 33.85 13.1 24.7 21.9 17.0 15.0 -1.2 -1.4 5.0 16.0 15.7 45.9 0.0 42.0 -9.85 39.55 -15.4 31.1 -21.35 22.05 -15.0 15.0 -11.1 9.5 -7.15 4.0 -6.55 0.6 -15.0 2.0 -19.65 3.0 -24.3 4.05 -28.65 4.7 -33.0 5.35 -42.0 5.2 -42.0 -7.0 -42.0 -19.65 -33.75 -16.75 -29.45 -14.85 -25.15 -12.95 -20.1 -11.5 -15.0 -10.0" fill="url(#gradient0)" fill-rule="evenodd" stroke="none"/>
  </g>
  <defs>
    <radialGradient cx="0" cy="0" gradientTransform="matrix(0.1018, 0.0, 0.0, 0.1045, -0.3, -0.35)" gradientUnits="userSpaceOnUse" id="gradient0" r="819.2" spreadMethod="pad">
      <stop offset="0.0" stop-color="#0000ff"/>
      <stop offset="0.1411764705882353" stop-color="#00ff00"/>
      <stop offset="0.2823529411764706" stop-color="#0000ff"/>
      <stop offset="0.4235294117647059" stop-color="#00ff00"/>
      <stop offset="0.5647058823529412" stop-color="#0000ff"/>
      <stop offset="0.7058823529411765" stop-color="#00ff00"/>
      <stop offset="0.8470588235294118" stop-color="#0000ff"/>
      <stop offset="0.9882352941176471" stop-color="#00ff00"/>
    </radialGradient>
  </defs>
</svg>
